<?xml version="1.0" encoding="UTF-8" standalone="no"?>
<!DOCTYPE svg PUBLIC "-//W3C//DTD SVG 1.1//EN" "http://www.w3.org/Graphics/SVG/1.1/DTD/svg11.dtd">
<svg width="100%" height="100%" viewBox="0 0 320 64" version="1.1"
    xmlns="http://www.w3.org/2000/svg" xmlns:xlink="http://www.w3.org/1999/xlink"
    xml:space="preserve" xmlns:serif="http://www.serif.com/"
    style="fill-rule:evenodd;clip-rule:evenodd;stroke-linejoin:round;stroke-miterlimit:2;">
    <g>
        <path id="svg_1" d="M319.3,23.05L319.3,21.15C280.3,13.35 56.7,24.1 17.7,23L17.7,15.6C56.7,14.7 276.9,1.25 319.3,7.15C319.1,6.55 319.5,5.85 319.3,5.25C276.7,-1.35 56.6,13.4 17.8,14.4C4.9,15 6,14.9 -0.1,15.3L-0.1,48.3L17.8,49.2C54.2,55 285.9,48.65 319.3,61.55C319.5,60.95 319.1,60.25 319.3,59.65C286,45.95 54.2,54 17.8,47.9L17.8,42.2C56.8,45.5 280.3,35.95 319.1,45.95L319.1,44.05C280.3,33.15 56.7,44.3 17.7,41L17.7,33.7C56.7,36.8 280.2,22.25 319,34.55L319,32.65C280,20.55 56.5,35.2 17.7,32.3L17.7,24.7C56.7,26.2 280.2,14.15 319.2,23.05" style="fill:rgb(10,44,125);fill-rule:nonzero;"/>
        <path id="svg_2" d="M42.7,42.6C48.1,40.2 51.7,34 49.7,28.4C48.3,23.2 41.2,21 36.5,23.7C36.2,22.6 35.8,21.4 35.5,20.3C35.5,20.1 35.4,20 35.4,19.8C35.3,19.6 36.3,18.7 36.5,18.5C37.5,17.3 38.5,16.1 39.3,14.9C40.8,12.7 42.3,10.1 41.8,7.4C41.4,4.9 39.4,2.8 36.6,2.7C34.2,2.6 31.9,4 30.7,5.9C29.3,8.1 29.6,10.4 30.3,12.8C30.8,14.2 31.2,15.7 31.6,17.2C31.8,17.7 31.9,18.3 32.1,18.8C32.1,18.9 32.2,19.3 32.3,19.3C32,19.8 31.3,20.4 30.9,20.8C29.2,22.5 27.3,24.2 26.2,26.3C25.1,28.3 24.6,30.6 24.8,32.9C25.2,37.4 28.4,41.5 32.9,43.1C35,43.9 37.3,44 39.5,43.7C40.3,46.2 40.9,48.7 41.7,51.2C42.4,53.3 43.9,55.9 43.2,58.2C42.6,60.2 40.3,61.5 38.1,61.2C40.7,60.4 41.9,57.6 40.4,55.4C39.1,53.6 36.3,53.1 34.5,54.4C30.7,57.2 34.3,62 38,62.7C40.4,63.1 42.9,62.1 44.4,60.3C46,58.2 45.8,56 45.2,53.6C44.5,51 43.7,48.4 43,45.8C42.8,45.2 42.7,44.7 42.5,44.1L42.2,43.2C42.1,42.7 42.3,42.8 42.7,42.6M47,29.4C48.3,33.8 45.7,38.6 41.3,40.4L38,29.3C37.7,28.4 37.5,27.5 37.2,26.6C37,25.9 36.7,25.7 37.4,25.3C41.4,23.5 45.9,25.6 47,29.4M33.8,6.4C34.7,5.6 36.3,5 37.5,5.5C38.7,6.1 39.2,7.5 39.1,8.7C39,11.8 36.4,14.5 34.4,16.8C34,15.3 33.5,13.8 33.1,12.2C32.5,10.2 31.9,8 33.8,6.4M34.2,25.5C34.4,25.9 33.6,26.7 33.4,27.1C33.1,27.7 32.9,28.3 32.7,29C32.4,30.3 32.5,31.7 32.9,33C33,33.4 33.6,33.5 33.9,33.1C34.1,32.7 33.8,31.8 33.8,31.3C33.8,30 34.1,28.8 34.9,27.7C36.2,32.2 37.5,36.6 38.8,41.1C34.5,41.7 30.2,39.3 28.4,35.6C27.3,33.3 27.2,30.6 28.3,28.3C29.4,25.9 31.5,24.1 33.3,22.3C33.5,23.3 33.7,24.4 34.2,25.5" style="fill:rgb(51,51,51);fill-rule:nonzero;"/>
        <g transform="matrix(1,0,0,1,157.914,-21.1797)">
            <text x="62.466px" y="42.843px" style="font-family:'Arial-BoldMT', 'Arial', sans-serif;font-weight:700;font-size:12px;fill:rgb(233,68,32);stroke:rgb(231,230,227);stroke-width:0.2px;">n</text>
        </g>
        <g transform="matrix(1,0,0,1,143.826,0.0415493)">
            <text x="62.466px" y="42.843px" style="font-family:'Arial-BoldMT', 'Arial', sans-serif;font-weight:700;font-size:12px;fill:rgb(233,68,32);stroke:rgb(231,230,227);stroke-width:0.2px;">e</text>
        </g>
        <g transform="matrix(1,0,0,1,129.745,-10.5898)">
            <text x="62.466px" y="42.843px" style="font-family:'Arial-BoldMT', 'Arial', sans-serif;font-weight:700;font-size:12px;fill:rgb(233,68,32);stroke:rgb(231,230,227);stroke-width:0.2px;">h</text>
        </g>
        <g transform="matrix(1,0,0,1,108.995,-9.58984)">
            <text x="62.466px" y="42.843px" style="font-family:'Arial-BoldMT', 'Arial', sans-serif;font-weight:700;font-size:12px;fill:rgb(233,68,32);stroke:rgb(231,230,227);stroke-width:0.2px;">c</text>
        </g>
        <g transform="matrix(1,0,0,1,96.2375,-19.1797)">
            <text x="62.466px" y="42.843px" style="font-family:'Arial-BoldMT', 'Arial', sans-serif;font-weight:700;font-size:12px;fill:rgb(233,68,32);stroke:rgb(231,230,227);stroke-width:0.2px;">r</text>
        </g>
        <g transform="matrix(1,0,0,1,-3.55078,-14.8848)">
            <text x="62.466px" y="42.843px" style="font-family:'Arial-BoldMT', 'Arial', sans-serif;font-weight:700;font-size:12px;fill:rgb(233,68,32);stroke:rgb(231,230,227);stroke-width:0.2px;">D</text>
        </g>
        <g transform="matrix(1,0,0,1,81.2429,-8.58984)">
            <text x="62.466px" y="42.843px" style="font-family:'Arial-BoldMT', 'Arial', sans-serif;font-weight:700;font-size:12px;fill:rgb(233,68,32);stroke:rgb(231,230,227);stroke-width:0.2px;">รถ</text>
        </g>
        <g transform="matrix(1,0,0,1,62.8276,2.03569)">
            <text x="62.466px" y="42.843px" style="font-family:'Arial-BoldMT', 'Arial', sans-serif;font-weight:700;font-size:12px;fill:rgb(233,68,32);stroke:rgb(231,230,227);stroke-width:0.2px;">h</text>
        </g>
        <g transform="matrix(1,0,0,1,45.5069,12.9185)">
            <text x="62.466px" y="42.843px" style="font-family:'Arial-BoldMT', 'Arial', sans-serif;font-weight:700;font-size:12px;fill:rgb(233,68,32);stroke:rgb(231,230,227);stroke-width:0.2px;">C</text>
        </g>
        <g transform="matrix(1,0,0,1,30.2585,-17.1797)">
            <text x="62.466px" y="42.843px" style="font-family:'Arial-BoldMT', 'Arial', sans-serif;font-weight:700;font-size:12px;fill:rgb(233,68,32);stroke:rgb(231,230,227);stroke-width:0.2px;">s</text>
        </g>
        <g transform="matrix(1,0,0,1,11.8738,-11.8432)">
            <text x="62.466px" y="42.843px" style="font-family:'Arial-BoldMT', 'Arial', sans-serif;font-weight:700;font-size:12px;fill:rgb(233,68,32);stroke:rgb(231,230,227);stroke-width:0.2px;">a</text>
        </g>
    </g>
</svg>