<svg xmlns="http://www.w3.org/2000/svg" xmlns:xlink="http://www.w3.org/1999/xlink" xmlns:serif="http://www.serif.com/" width="100%" height="100%" viewBox="0 0 512 512" version="1.1" xml:space="preserve" style="fill-rule:evenodd;clip-rule:evenodd;"><g><path id="svg_32" d="M146.7,32.36L45.28,73.34L10.51,4.53L415.04,5.54L430.11,20.72C430.11,20.72 449.69,7.77 450.39,7.06C451.1,6.35 503.71,9.08 504.29,7.57C504.87,6.05 506.03,109.27 505.45,108.77C504.87,108.26 461.98,133.56 461.4,133.06C460.82,132.55 500.23,156.84 500.23,156.84C500.23,156.84 500.23,383.52 499.65,383.02C499.07,382.51 482.84,393.65 482.26,393.14C481.68,392.63 503.7,402.75 503.7,402.75L502.54,502.94C502.54,502.94 144.37,504.96 143.79,504.46C143.21,503.95 124.66,474.61 124.09,474.1C123.51,473.59 101.49,505.98 100.91,505.47C100.33,504.96 8.76,504.96 8.18,504.46C7.6,503.95 4.12,204.41 3.54,203.9C2.96,203.39 24.98,194.29 24.4,193.78C23.82,193.27 4.12,180.12 3.54,179.61C2.96,179.1 4.12,72.85 4.12,72.85" style="fill:none;fill-rule:nonzero;stroke:black;stroke-width:5px;"/><path id="svg_27" d="M5.06,507.5L4.5,507.5" style="fill:none;fill-rule:nonzero;stroke:black;stroke-width:5px;"/><path id="svg_18" d="M84.43,55.63" style="fill:none;fill-rule:nonzero;stroke:black;stroke-opacity:0.5;stroke-width:5px;stroke-linejoin:round;stroke-miterlimit:2;"/><g id="svg_35" transform="matrix(1,0,0,1,-6,0)"><path d="M193.5,174.5C193.5,175.5 222.5,97.5 222.5,97.5C222.5,97.5 262.5,102.5 262.5,103.5C262.5,104.5 299.5,97.5 299,97C298.5,96.5 327.394,175.207 326.894,174.707C326.394,174.207 366.5,151.5 366,151C365.5,150.5 261.5,187.5 261,187C260.5,186.5 158.5,151.5 158,151C157.5,150.5 193.5,174.5 193.5,174.5Z" style="fill-opacity:0;fill-rule:nonzero;stroke:black;stroke-width:5px;stroke-linecap:round;stroke-linejoin:round;"/></g><g transform="matrix(1,0,0,1,16.9274,-13)"><ellipse cx="211.749" cy="230.417" rx="5.02" ry="9.456" style="fill:none;stroke:black;stroke-width:5px;stroke-linecap:round;stroke-linejoin:round;stroke-miterlimit:1.5;"/></g><g transform="matrix(1,0,0,1,69,-13)"><ellipse cx="211.749" cy="230.417" rx="5.02" ry="9.456" style="fill:none;stroke:black;stroke-width:5px;stroke-linecap:round;stroke-linejoin:round;stroke-miterlimit:1.5;"/></g><g transform="matrix(1,0,0,1,-7.55064,-66.0856)"><path d="M204.473,303.19C209.327,334.72 227.696,352.043 248.475,357.197C279.672,364.936 316.656,345.142 322.632,303.803C322.83,302.438 321.881,301.169 320.516,300.971C319.15,300.774 317.881,301.722 317.684,303.088C312.192,341.074 278.346,359.456 249.679,352.344C230.55,347.599 213.883,331.455 209.414,302.429C209.204,301.066 207.927,300.129 206.563,300.339C205.199,300.549 204.263,301.827 204.473,303.19Z"/></g><g transform="matrix(1,0,0,1,16,-34)"><path d="M152.087,395.632C191.281,395.632 230.451,394.892 269.631,394.892C281.99,394.892 294.443,394.258 306.787,394.612C316.41,394.888 322.195,396.757 331.542,393.969C332.864,393.575 333.617,392.181 333.223,390.859C332.829,389.537 331.435,388.783 330.113,389.178C321.361,391.788 315.941,389.873 306.931,389.614C294.539,389.259 282.037,389.892 269.631,389.892C230.451,389.892 191.281,390.632 152.087,390.632C150.707,390.632 149.587,391.752 149.587,393.132C149.587,394.512 150.707,395.632 152.087,395.632Z"/></g><g transform="matrix(1,0,0,1,16,-34)"><path d="M187.217,404.276C186.527,403.382 185.289,403.042 184.214,403.526C182.955,404.092 182.393,405.573 182.96,406.831C183.653,408.371 184.88,409.117 186.498,409.277C187.35,409.362 188.367,409.239 189.418,409.019C190.413,408.811 191.455,408.48 192.296,408.48L213.089,408.48C221.576,408.48 230.324,407.861 238.777,408.671C248.363,409.591 257.952,412.619 267.581,412.871C275.434,413.076 286.048,411.362 292.369,411.362C293.748,411.362 294.869,410.242 294.869,408.862C294.869,407.482 293.748,406.362 292.369,406.362C286.081,406.362 275.524,408.077 267.711,407.872C258.197,407.624 248.726,404.602 239.255,403.694C230.645,402.869 221.733,403.48 213.089,403.48L192.296,403.48C191.203,403.48 189.846,403.812 188.547,404.093C188.143,404.18 187.549,404.245 187.217,404.276Z"/></g><g transform="matrix(1,0,0,1,16,-34)"><path d="M165.71,438.959C192.841,438.959 220.597,440.777 247.653,438.839C258.034,438.095 268.202,435.321 278.564,434.267C284.687,433.643 295.016,434.86 298.74,434.86C300.12,434.86 301.24,433.74 301.24,432.36C301.24,430.98 300.12,429.86 298.74,429.86C294.922,429.86 284.334,428.653 278.057,429.292C267.745,430.342 257.627,433.112 247.296,433.852C220.358,435.781 192.722,433.959 165.71,433.959C164.33,433.959 163.21,435.079 163.21,436.459C163.21,437.838 164.33,438.959 165.71,438.959Z"/></g><g transform="matrix(1,0,0,1,16,-34)"><path d="M216.633,427.098C227.862,427.098 238.593,423.833 249.616,423.001C251.511,422.858 253.158,423.608 254.798,424.17C257.258,425.013 259.691,425.571 262.389,424.698C263.702,424.273 264.423,422.863 263.998,421.55C263.574,420.237 262.163,419.516 260.85,419.941C259.269,420.452 257.861,419.934 256.419,419.44C254.16,418.666 251.851,417.818 249.24,418.015C238.341,418.838 227.736,422.098 216.633,422.098C215.253,422.098 214.133,423.218 214.133,424.598C214.133,425.978 215.253,427.098 216.633,427.098Z"/></g><g transform="matrix(1,0,0,1,16,-34)"><path d="M256.593,454.744C254.616,455.532 250.185,455.814 249.164,455.869C238.429,456.456 227.524,455.866 216.769,455.866C215.389,455.866 214.269,456.986 214.269,458.366C214.269,459.746 215.389,460.866 216.769,460.866C227.615,460.866 238.612,461.453 249.437,460.862C250.755,460.79 256.618,460.254 258.915,459.187C260.611,458.4 261.197,457.112 261.197,456.093C261.197,454.713 260.076,453.593 258.697,453.593C257.814,453.593 257.037,454.052 256.593,454.744Z"/></g></g></svg>